<?xml version="1.0" encoding="UTF-8" standalone="no"?>
<svg width="30px" height="21px" viewBox="0 0 30 21" version="1.1" xmlns="http://www.w3.org/2000/svg" xmlns:xlink="http://www.w3.org/1999/xlink">
    <!-- Generator: Sketch 45 (43475) - http://www.bohemiancoding.com/sketch -->
    <title>kava-icon39</title>
    <desc>Created with Sketch.</desc>
    <defs></defs>
    <g id="Page-1" stroke="none" stroke-width="1" fill="none" fill-rule="evenodd">
        <g id="General" transform="translate(-655.000000, -763.000000)" fill="#2A2E37">
            <path d="M684.3335,764.333 C684.3335,763.966 684.0345,763.667 683.6665,763.667 C683.4775,763.667 683.3085,763.747 683.1865,763.876 L683.1845,763.874 L665.6575,782.048 L656.1385,772.528 C656.0175,772.407 655.8505,772.333 655.6665,772.333 C655.2995,772.333 655.0005,772.632 655.0005,772.999 C655.0005,773.185 655.0745,773.351 655.1955,773.472 L665.1955,783.472 C665.3155,783.593 665.4825,783.667 665.6665,783.667 C665.8565,783.667 666.0255,783.587 666.1465,783.458 L666.1485,783.46 L684.1485,764.794 L684.1465,764.792 C684.2615,764.673 684.3335,764.513 684.3335,764.333" id="39"></path>
        </g>
    </g>
</svg>