<?xml version="1.0" encoding="UTF-8" standalone="no"?>
<svg width="25px" height="25px" viewBox="0 0 25 25" version="1.1" xmlns="http://www.w3.org/2000/svg" xmlns:xlink="http://www.w3.org/1999/xlink">
    <!-- Generator: Sketch 45 (43475) - http://www.bohemiancoding.com/sketch -->
    <title>kava-icon43</title>
    <desc>Created with Sketch.</desc>
    <defs></defs>
    <g id="Page-1" stroke="none" stroke-width="1" fill="none" fill-rule="evenodd">
        <g id="General" transform="translate(-769.000000, -761.000000)" fill="#2A2E37">
            <path d="M782.6099,773.667 L793.4709,762.804 C793.5919,762.685 793.6669,762.517 793.6669,762.333 C793.6669,761.966 793.3689,761.667 793.0009,761.667 C792.8169,761.667 792.6499,761.741 792.5289,761.862 L781.6669,772.724 L770.8049,761.862 C770.6839,761.741 770.5179,761.667 770.3339,761.667 C769.9649,761.667 769.6669,761.966 769.6669,762.333 C769.6669,762.517 769.7409,762.685 769.8619,762.806 L780.7239,773.667 L769.8619,784.528 C769.7409,784.649 769.6669,784.815 769.6669,784.999 C769.6669,785.368 769.9649,785.667 770.3339,785.667 C770.5179,785.667 770.6839,785.593 770.8049,785.472 L781.6669,774.608 L792.5289,785.472 C792.6499,785.593 792.8169,785.667 793.0009,785.667 C793.3689,785.667 793.6669,785.368 793.6669,784.999 C793.6669,784.815 793.5919,784.649 793.4709,784.528 L782.6099,773.667 Z" id="43"></path>
        </g>
    </g>
</svg>